<?xml version="1.0" standalone="no"?>
<!DOCTYPE svg PUBLIC "-//W3C//DTD SVG 20010904//EN"
 "http://www.w3.org/TR/2001/REC-SVG-20010904/DTD/svg10.dtd">
<svg version="1.0" xmlns="http://www.w3.org/2000/svg"
 width="432.000000pt" height="253.000000pt" viewBox="0 0 432.000000 253.000000"
 preserveAspectRatio="xMidYMid meet">
<defs>
    <linearGradient id="gradient1" x1="0%" y1="0%" x2="100%" y2="0%">
        <stop offset="0%" style="stop-color:#073FF8; stop-opacity:1" />
        <stop offset="100%" style="stop-color:#0F165D; stop-opacity:1" />
    </linearGradient>
</defs>
<metadata>
Created by potrace 1.16, written by Peter Selinger 2001-2019
</metadata>
<g transform="translate(0.000000,253.000000) scale(0.100000,-0.100000)"
fill="url(#gradient1)" stroke="none">
<path d="M2860 2231 c-71 -8 -213 -46 -245 -65 -11 -7 -38 -19 -60 -26 -22 -7
-53 -23 -68 -36 -16 -13 -33 -24 -37 -24 -20 0 -159 -127 -212 -193 -89 -111
-94 -120 -107 -159 -7 -21 -21 -44 -31 -51 -11 -7 -24 -34 -30 -60 -5 -26 -14
-55 -20 -65 -5 -9 -14 -66 -20 -125 -9 -85 -8 -112 1 -124 10 -12 40 -14 165
-11 84 2 155 5 157 8 3 3 12 44 21 92 28 160 126 308 270 402 28 19 65 38 81
42 17 4 48 17 70 28 35 19 57 21 185 21 131 0 149 -2 188 -22 23 -13 49 -23
56 -23 26 0 167 -103 209 -153 107 -130 118 -168 65 -234 -41 -50 -176 -204
-192 -218 -6 -5 -26 -28 -45 -50 -34 -40 -130 -147 -231 -260 -30 -33 -84 -94
-120 -135 -36 -40 -79 -89 -96 -108 -17 -19 -38 -42 -45 -51 -8 -9 -56 -64
-108 -121 -126 -140 -168 -188 -216 -245 -22 -26 -61 -70 -87 -98 -39 -42 -45
-53 -33 -60 9 -4 103 -7 209 -5 193 3 194 3 214 28 11 14 65 71 119 126 54 56
134 141 178 190 44 48 110 120 146 158 37 39 112 122 168 183 276 305 327 361
355 393 17 18 61 66 97 105 126 135 124 130 79 272 -53 167 -148 320 -259 421
-63 57 -175 139 -201 147 -14 4 -35 14 -48 22 -13 8 -69 29 -126 47 -84 28
-124 35 -217 39 -63 3 -143 2 -179 -2z"/>
<path d="M1241 1984 c-101 -14 -124 -22 -256 -85 -33 -16 -66 -29 -72 -29 -7
0 -13 -4 -13 -10 0 -5 -19 -21 -41 -36 -101 -63 -291 -292 -319 -383 -5 -14
-18 -44 -29 -66 -12 -21 -21 -50 -21 -62 0 -13 -9 -49 -20 -80 -28 -81 -29
-324 -1 -398 10 -27 22 -71 25 -97 4 -25 14 -52 21 -58 8 -7 15 -18 15 -25 0
-21 69 -146 108 -195 94 -119 216 -223 322 -274 177 -86 243 -100 460 -99 127
1 175 5 210 18 25 9 68 23 95 32 66 20 187 85 253 136 192 146 322 363 363
604 25 148 25 231 2 249 -24 18 -293 20 -311 2 -7 -7 -12 -39 -12 -75 0 -115
-55 -283 -122 -375 -97 -132 -260 -230 -410 -245 -230 -23 -370 23 -519 169
-86 85 -132 150 -144 203 -4 17 -15 41 -24 55 -12 19 -17 57 -19 162 -4 134
-3 140 28 228 18 49 39 95 46 101 8 6 14 17 14 24 0 22 91 124 149 169 31 23
81 54 111 68 58 27 208 58 284 58 97 0 233 -47 351 -120 17 -10 51 -24 76 -31
43 -12 51 -11 100 13 82 39 99 60 99 117 0 27 -3 63 -6 80 -7 31 -64 101 -83
101 -6 0 -19 8 -29 18 -19 18 -160 92 -177 92 -5 0 -32 9 -60 19 -52 20 -216
42 -295 40 -25 -1 -92 -7 -149 -15z"/>
<path d="M3183 394 c-29 -14 -53 -30 -53 -36 0 -6 -7 -19 -16 -29 -10 -11 -16
-39 -17 -76 -2 -50 2 -64 28 -100 37 -51 61 -63 125 -63 68 0 95 15 130 72 57
92 26 196 -70 237 -61 26 -63 26 -127 -5z"/>
</g>
</svg>
